<svg width="16.000000" height="17.000000" viewBox="0 0 16 17" fill="none" xmlns="http://www.w3.org/2000/svg" xmlns:xlink="http://www.w3.org/1999/xlink">
	<desc>
			Created with Pixso.
	</desc>
	<defs>
		<clipPath id="clip210_1139">
			<rect id="image" width="15.214797" height="17.000000" fill="white" fill-opacity="0"/>
		</clipPath>
	</defs>
	<g clip-path="url(#clip210_1139)">
		<path id="Vector" d="M2.29236 16.4929L2.29236 0.507202L10.8025 0.507202L14.7076 4.98035L14.7076 16.4929L2.29236 16.4929Z" stroke="#00BAEC" stroke-opacity="1.000000" stroke-width="1.014320"/>
		<path id="Vector" d="M0 5.36572L13.4296 5.36572L13.4296 13.4194L0 13.4194L0 5.36572Z" fill="#FFFFFF" fill-opacity="1.000000" fill-rule="nonzero"/>
		<path id="Vector" d="M3.79364 7.71893L1.39984 10.7314L3.86462 10.7314L3.86462 11.6342L0.0507812 11.6342L0.0507812 10.8329L2.43445 7.80011L0.202942 7.80011L0.202942 6.89734L3.79364 6.89734L3.79364 7.71893ZM5.59912 6.89734L5.59912 11.6342L4.49353 11.6342L4.49353 6.89734L5.59912 6.89734ZM7.67847 9.87946L7.67847 11.6342L6.54242 11.6342L6.54242 6.89734L8.40875 6.89734C8.82465 6.89734 9.1391 6.93793 9.36224 7.02917C9.62103 7.138 9.84143 7.32166 9.99506 7.55664C10.1487 7.79156 10.2285 8.06714 10.2244 8.34784C10.2244 8.58112 10.1737 8.80426 10.0824 9.0274C9.99109 9.26068 9.85925 9.43317 9.68683 9.55487C9.52454 9.68671 9.36224 9.76788 9.19995 9.80841C9.03766 9.849 8.79419 9.86932 8.45947 9.86932L7.67847 9.86932L7.67847 9.87946ZM7.63788 9.01727L8.35803 9.01727C8.6319 9.01727 8.82465 8.95642 8.93622 8.82452C9.04779 8.69269 9.10864 8.55066 9.10864 8.38837C9.10864 8.19568 9.04779 8.04352 8.92609 7.93195C8.80438 7.82037 8.61163 7.75952 8.35803 7.75952L7.63788 7.75952L7.63788 9.01727Z" fill="#00BAEC" fill-opacity="1.000000" fill-rule="nonzero"/>
	</g>
</svg>
