<svg width="15.000000" height="15.000000" viewBox="0 0 15 15" fill="none" xmlns="http://www.w3.org/2000/svg" xmlns:xlink="http://www.w3.org/1999/xlink">
	<desc>
			Created with Pixso.
	</desc>
	<defs>
		<clipPath id="clip210_1295">
			<rect id="SVG" width="15.000000" height="15.000000" fill="white" fill-opacity="0"/>
		</clipPath>
	</defs>
	<g clip-path="url(#clip210_1295)">
		<path id="Vector" d="M1 0L14 0C14.55 0 15 0.450012 15 1L15 2C15 2.54999 14.55 3 14 3L1 3C0.450012 3 0 2.54999 0 2L0 1C0 0.450012 0.450012 0 1 0Z" fill="#00BAEC" fill-opacity="1.000000" fill-rule="nonzero"/>
		<path id="Vector" d="M1 6L14 6C14.55 6 15 6.45001 15 7L15 8C15 8.54999 14.55 9 14 9L1 9C0.450012 9 0 8.54999 0 8L0 7C0 6.45001 0.450012 6 1 6Z" fill="#00BAEC" fill-opacity="1.000000" fill-rule="nonzero"/>
		<path id="Vector" d="M1 12L14 12C14.55 12 15 12.45 15 13L15 14C15 14.55 14.55 15 14 15L1 15C0.450012 15 0 14.55 0 14L0 13C0 12.45 0.450012 12 1 12Z" fill="#00BAEC" fill-opacity="1.000000" fill-rule="nonzero"/>
	</g>
</svg>
