<svg width="15.000000" height="15.000000" viewBox="0 0 15 15" fill="none" xmlns="http://www.w3.org/2000/svg" xmlns:xlink="http://www.w3.org/1999/xlink">
	<desc>
			Created with Pixso.
	</desc>
	<defs>
		<clipPath id="clip210_1289">
			<rect id="SVG" width="15.000000" height="15.000000" fill="white" fill-opacity="0"/>
		</clipPath>
	</defs>
	<g clip-path="url(#clip210_1289)">
		<path id="Vector" d="M1 0L5 0C5.54999 0 6 0.450012 6 1L6 5C6 5.54999 5.54999 6 5 6L1 6C0.450012 6 0 5.54999 0 5L0 1C0 0.450012 0.450012 0 1 0Z" fill="#BFBFBF" fill-opacity="1.000000" fill-rule="nonzero"/>
		<path id="Vector" d="M1 9L5 9C5.54999 9 6 9.45001 6 10L6 14C6 14.55 5.54999 15 5 15L1 15C0.450012 15 0 14.55 0 14L0 10C0 9.45001 0.450012 9 1 9Z" fill="#BFBFBF" fill-opacity="1.000000" fill-rule="nonzero"/>
		<path id="Vector" d="M10 9L14 9C14.55 9 15 9.45001 15 10L15 14C15 14.55 14.55 15 14 15L10 15C9.45001 15 9 14.55 9 14L9 10C9 9.45001 9.45001 9 10 9Z" fill="#BFBFBF" fill-opacity="1.000000" fill-rule="nonzero"/>
		<path id="Vector" d="M10 0L14 0C14.55 0 15 0.450012 15 1L15 5C15 5.54999 14.55 6 14 6L10 6C9.45001 6 9 5.54999 9 5L9 1C9 0.450012 9.45001 0 10 0Z" fill="#BFBFBF" fill-opacity="1.000000" fill-rule="nonzero"/>
	</g>
</svg>
