<svg width="167.878662" height="49.119995" viewBox="0 0 167.879 49.12" fill="none" xmlns="http://www.w3.org/2000/svg" xmlns:xlink="http://www.w3.org/1999/xlink">
	<desc>
			Created with Pixso.
	</desc>
	<defs/>
	<path id="Vector" d="M7.16663 19.8852L9.42932 23.8323C11.0839 20.1544 13.9446 15.9481 17.9913 11.2334C21.48 15.2703 24.0715 18.9482 25.776 22.2475L30.1318 23.5234L32.8529 19.337C28.9656 11.5424 22.2574 4.35583 17.9814 0C13.4163 4.66479 6.0304 12.569 2.3324 21.0115L7.16663 19.8852Z" fill="#004773" fill-opacity="1.000000" fill-rule="nonzero"/>
	<path id="Vector" d="M35.7736 28.4175C35.6339 27.2114 35.3649 26.0352 35.026 24.8391L32.2151 29.1451L27.9391 27.8992C28.0387 28.3776 28.1284 28.856 28.1782 29.3145L28.1982 29.4341L28.2181 29.5538C28.2878 30.082 28.3378 30.6103 28.3378 31.1386C28.3378 35.4645 25.6963 39.1724 21.9187 40.7074L19.4866 44.6745L22.8556 48.4522C30.4309 46.3391 35.9828 39.3917 35.9828 31.1386C35.9629 30.2216 35.8931 29.3046 35.7736 28.4175Z" fill="#0087BF" fill-opacity="1.000000" fill-rule="nonzero"/>
	<path id="Vector" d="M13.506 45.2227L15.9082 41.3054C11.1736 40.3485 7.61523 36.1622 7.61523 31.1584C7.61523 30.9193 7.61523 30.6801 7.63513 30.4408L4.75452 25.4172L0.548218 26.4039C0.408691 27.0817 0.279053 27.7695 0.209351 28.4473C0.0698242 29.3245 0 30.2415 0 31.1584C0 40.7473 7.50549 48.5917 16.9747 49.1199L13.506 45.2227Z" fill="#00BAEC" fill-opacity="1.000000" fill-rule="nonzero"/>
	<path id="Vector" d="M160.811 26.936C159.271 26.936 158.371 25.8864 158.371 24.8667L158.371 19.8082C158.371 18.4487 159.331 17.5589 160.811 17.5589L166.429 17.5589L167.789 14.2899L160.811 14.2899C155.872 14.2899 154.113 16.9191 154.113 19.1384L154.113 25.1866C154.113 27.5059 155.872 30.1851 160.811 30.1851L167.879 30.1851L167.879 26.946L160.811 26.946L160.811 26.936ZM129.17 14.2799L120.893 14.2799C115.984 14.2799 114.225 16.9091 114.225 19.1284L114.225 26.936L112.276 26.936L112.276 30.1751L131.08 30.1751L131.08 26.936L129.13 26.936L129.13 14.2799L129.17 14.2799ZM124.942 26.936L118.454 26.936L118.454 19.8382C118.454 18.4487 119.383 17.5889 120.893 17.5889L124.902 17.5889L124.902 26.946L124.942 26.946L124.942 26.936ZM81.9948 24.2469L76.7762 14.2799L71.8079 14.2799L71.8079 30.1751L75.9166 30.1751L75.9166 19.8082L80.1453 27.8358L83.8842 27.8358L88.0829 19.7383L88.0829 30.1751L92.2216 30.1751L92.2216 14.2799L87.2532 14.2799L81.9948 24.2469ZM100.179 24.8367L100.179 23.6371L108.017 23.6371L108.017 20.6979L100.179 20.6979L100.179 17.549L108.237 17.549L109.596 14.2799L95.9805 14.2799L95.9805 25.1466C95.9805 27.4659 97.71 30.1451 102.618 30.1451L109.686 30.1451L109.686 26.9061L102.618 26.9061C101.019 26.9061 100.179 25.8264 100.179 24.8367ZM60.8212 14L59.2716 14C56.8024 14 54.6431 15.4796 54.1532 17.5189L51.0941 30.1151L55.2928 30.1151L55.8527 27.7358L64.2501 27.7358L64.7699 30.1151L69.0287 30.1151L65.9696 17.5189C65.4797 15.4796 63.3204 14 60.8212 14ZM56.5924 24.5568L57.952 18.7485C58.1019 18.0088 58.8817 17.449 59.7715 17.449L60.3613 17.449C61.261 17.449 62.0308 18.0088 62.1808 18.7485L63.5104 24.5568L56.5924 24.5568ZM138.368 24.1569L138.368 14.2799L134.269 14.2799L134.269 30.1751L138.408 30.1751L146.305 19.1185L146.305 30.1751L150.444 30.1751L150.444 14.2799L145.685 14.2799L138.368 24.1569Z" fill="#004773" fill-opacity="1.000000" fill-rule="nonzero"/>
	<path id="Vector" d="M52.5137 43.2411L52.5137 39.2623L51.0941 39.2623L51.0941 44.9705L52.7036 44.9705L55.5128 40.9218L55.5128 44.9705L56.9623 44.9705L56.9623 39.2623L55.3229 39.2623L52.5137 43.2411ZM64.9899 41.5416L62.3307 41.5416L62.3307 39.2523L60.8512 39.2523L60.8512 44.9606L62.3307 44.9606L62.3307 42.5213L64.9899 42.5213L64.9899 44.9606L66.4695 44.9606L66.4695 39.2523L64.9899 39.2523L64.9899 41.5416ZM77.676 42.2214C77.4261 42.0015 77.2162 41.8815 77.0563 41.8515C77.2062 41.7915 77.3362 41.7315 77.4261 41.6616C77.5161 41.5716 77.646 41.4416 77.766 41.2917L78.1359 40.7018C78.2859 40.4819 78.4158 40.3619 78.5057 40.3019C78.5957 40.272 78.8157 40.242 79.1256 40.242L79.5255 40.242L79.5255 39.2523L78.8457 39.2523C78.3158 39.2523 77.9459 39.3123 77.736 39.4422C77.5161 39.5622 77.2761 39.8121 76.9962 40.212L76.3464 41.2317C76.2565 41.3817 76.1565 41.4516 76.0966 41.5116C76.0365 41.5416 75.8766 41.5716 75.6666 41.5716L75.6666 39.2823L74.2471 39.2823L74.2471 41.5716C74.0271 41.5716 73.8772 41.5416 73.8173 41.5116C73.7572 41.4816 73.6672 41.3916 73.5673 41.2317L72.9175 40.212C72.6376 39.8121 72.3877 39.5322 72.1777 39.4422C71.9578 39.3223 71.5879 39.2523 71.068 39.2523L70.3883 39.2523L70.3883 40.242L70.7881 40.242C71.098 40.242 71.318 40.272 71.408 40.3019C71.4979 40.332 71.6279 40.4919 71.7778 40.7018L72.1477 41.2917C72.2677 41.4816 72.3976 41.6016 72.4875 41.6616C72.5776 41.7515 72.7075 41.8115 72.8575 41.8515C72.7075 41.8815 72.4875 42.0015 72.2377 42.2214C71.9878 42.4413 71.7079 42.7412 71.4679 43.1211L70.1083 45.0005L71.8378 45.0005L73.0375 43.301C73.2874 42.9312 73.4973 42.7112 73.6572 42.6213C73.8073 42.5313 74.0271 42.5013 74.337 42.5013L74.337 45.0005L75.7566 45.0005L75.7566 42.5013C76.0665 42.5013 76.3164 42.5313 76.4364 42.6213C76.5863 42.7112 76.7764 42.9312 77.0563 43.301L78.2559 45.0005L79.9854 45.0005L78.6257 43.1211C78.1959 42.7412 77.9259 42.4313 77.676 42.2214ZM84.6239 43.2311L84.6239 39.2523L83.2043 39.2523L83.2043 44.9606L84.8138 44.9606L87.623 40.9118L87.623 44.9606L89.0725 44.9606L89.0725 39.2523L87.463 39.2523L84.6239 43.2311ZM97.1901 41.5416L94.5309 41.5416L94.5309 39.2523L93.0514 39.2523L93.0514 44.9606L94.5309 44.9606L94.5309 42.5213L97.1901 42.5213L97.1901 44.9606L98.6697 44.9606L98.6697 39.2523L97.1901 39.2523L97.1901 41.5416ZM104.198 43.2311L104.198 39.2523L102.778 39.2523L102.778 44.9606L104.388 44.9606L107.197 40.9118L107.197 44.9606L108.617 44.9606L108.617 39.2523L107.007 39.2523L104.198 43.2311ZM118.054 39.5022C117.684 39.3123 117.034 39.2223 116.174 39.2223L112.995 39.2223L112.995 46.8799L114.475 46.8799L114.475 44.9305L115.984 44.9305C116.914 44.9305 117.594 44.8406 118.024 44.6207C118.454 44.4007 118.644 44.0308 118.644 43.481L118.644 40.5219C118.614 40.0521 118.424 39.6821 118.054 39.5022ZM117.164 43.451C117.164 43.671 117.074 43.7909 116.914 43.8809C116.764 43.9708 116.484 44.0009 116.084 44.0009L114.445 44.0009L114.445 40.202L116.054 40.202C116.454 40.202 116.764 40.232 116.914 40.292C117.064 40.3519 117.134 40.4819 117.134 40.6619L117.134 43.441L117.164 43.441L117.164 43.451ZM124.072 43.2311L124.072 39.2523L122.652 39.2523L122.652 44.9606L124.262 44.9606L127.101 40.9118L127.101 44.9606L128.521 44.9606L128.521 39.2523L126.911 39.2523L124.072 43.2311ZM136.888 41.5416L134.239 41.5416L134.239 39.2523L132.759 39.2523L132.759 44.9606L134.239 44.9606L134.239 42.5213L136.888 42.5213L136.888 44.9606L138.368 44.9606L138.368 39.2523L136.888 39.2523L136.888 41.5416ZM144.886 39.2523C143.986 39.2523 143.376 39.3423 143.006 39.5322C142.636 39.7222 142.446 40.062 142.446 40.5818L142.446 45.0305L143.896 45.0305L143.896 40.7318C143.896 40.5419 143.956 40.4219 144.116 40.3619C144.266 40.3019 144.546 40.272 144.986 40.272L146.375 40.272L146.375 39.2823L144.896 39.2823L144.896 39.2523L144.886 39.2523Z" fill="#00BAEC" fill-opacity="1.000000" fill-rule="nonzero"/>
</svg>
