<svg width="317.000000" height="427.000000" viewBox="0 0 317 427" fill="none" xmlns="http://www.w3.org/2000/svg" xmlns:xlink="http://www.w3.org/1999/xlink">
	<desc>
			Created with Pixso.
	</desc>
	<defs/>
	<path id="Vector" d="M62.84 172.52L82.8 206.71C97.53 174.78 122.73 138.34 158.08 97.38C188.52 132.53 211.43 164.14 226.81 192.84L265.11 203.8L289.33 167.69C255.29 99.96 196.05 37.73 158.41 0C118.15 40.31 53.02 108.99 20.61 182.2L62.84 172.52Z" fill="#004773" fill-opacity="1.000000" fill-rule="nonzero"/>
	<path id="Vector" d="M314.85 246.37C313.55 236.05 311.26 225.73 308.31 215.09L283.76 252.5L246.12 241.86C247.11 246.05 247.76 250.24 248.41 254.11L248.41 255.08L248.74 256.05C249.4 260.56 249.72 265.08 249.72 269.91C249.72 307.32 226.49 339.57 193.1 353.11L171.5 387.62L200.96 420.19C267.72 401.81 316.49 341.51 316.49 269.91C316.82 262.17 316.16 254.11 314.85 246.37Z" fill="#0087BF" fill-opacity="1.000000" fill-rule="nonzero"/>
	<path id="Vector" d="M118.8 392.13L140.08 357.95C98.51 349.57 67.09 313.45 67.09 269.91C67.09 267.66 67.09 265.72 67.42 263.46L41.89 219.93L4.9 228.96C3.6 234.76 2.61 240.89 1.96 246.7C0.65 254.11 0 262.17 0 270.24C0 353.44 66.11 421.48 149.24 426L118.8 392.13Z" fill="#00C0F3" fill-opacity="1.000000" fill-rule="nonzero"/>
</svg>
