<svg width="653.000000" height="53.000000" viewBox="0 0 653 53" fill="none" xmlns="http://www.w3.org/2000/svg" xmlns:xlink="http://www.w3.org/1999/xlink">
	<desc>
			Created with Pixso.
	</desc>
	<defs/>
	<path id="Vector" d="M9.24 27.27L9.24 0.18L-0.58 0.18L-0.58 38.88L10.23 38.88L29.86 11.47L29.86 38.88L39.36 38.88L39.36 0.18L28.55 0.18L9.24 27.27Z" fill="#00C0F3" fill-opacity="1.000000" fill-rule="nonzero"/>
	<path id="Vector" d="M94.67 15.65L76.34 15.65L76.34 0.17L66.19 0.17L66.19 38.87L76.34 38.87L76.34 22.42L94.67 22.42L94.67 38.87L104.82 38.87L104.82 0.17L94.67 0.17L94.67 15.65Z" fill="#00C0F3" fill-opacity="1.000000" fill-rule="nonzero"/>
	<path id="Vector" d="M181.4 20.49C179.77 18.87 178.13 18.23 177.15 17.91C178.13 17.58 179.11 16.94 179.77 16.62C180.42 15.97 181.08 15.33 182.06 14.04L184.68 10.17C185.66 8.56 186.64 7.91 186.97 7.59C187.62 7.27 188.93 7.27 191.22 7.27L193.84 7.27L193.84 0.49L189.26 0.49C185.66 0.49 183.04 0.82 181.73 1.78C180.09 2.43 178.46 4.36 176.82 6.94L172.24 13.72C171.58 14.68 170.93 15.33 170.6 15.65C169.95 15.97 168.97 15.97 167.66 15.97L167.66 0.49L157.84 0.49L157.84 15.97C156.2 15.97 155.22 15.97 154.89 15.65C154.24 15.33 153.91 14.68 153.25 13.72L148.67 6.94C146.71 4.04 145.07 2.43 143.76 1.78C142.13 1.14 139.84 0.49 136.24 0.49L131.65 0.49L131.65 7.27L134.27 7.27C136.56 7.27 137.87 7.27 138.53 7.59C139.18 7.91 139.84 8.88 140.82 10.17L143.44 14.04C144.42 15.33 145.07 15.97 145.73 16.62C146.38 17.26 147.36 17.58 148.35 17.91C147.36 18.23 145.73 18.87 144.09 20.49C142.45 22.1 140.49 24.03 138.85 26.29L129.36 38.87L141.14 38.87L149.33 27.58C150.96 25 152.6 23.71 153.58 23.07C154.56 22.42 156.2 22.1 158.16 22.1L158.16 38.87L167.98 38.87L167.98 22.1C170.27 22.1 171.58 22.42 172.57 23.07C173.55 23.71 174.86 25.32 176.82 27.58L185 38.87L196.79 38.87L187.29 26.29C185 23.71 183.37 21.78 181.4 20.49Z" fill="#00C0F3" fill-opacity="1.000000" fill-rule="nonzero"/>
	<path id="Vector" d="M229.19 27.26L229.19 0.17L219.37 0.17L219.37 38.87L230.5 38.87L249.81 11.46L249.81 38.87L259.63 38.87L259.63 0.17L248.5 0.17L229.19 27.26Z" fill="#00C0F3" fill-opacity="1.000000" fill-rule="nonzero"/>
	<path id="Vector" d="M315.27 15.65L297.26 15.65L297.26 0.17L286.79 0.17L286.79 38.87L297.26 38.87L297.26 22.42L315.27 22.42L315.27 38.87L325.41 38.87L325.41 0.17L315.27 0.17L315.27 15.65Z" fill="#00C0F3" fill-opacity="1.000000" fill-rule="nonzero"/>
	<path id="Vector" d="M363.38 27.26L363.38 0.17L353.56 0.17L353.56 38.87L364.69 38.87L384 11.46L384 38.87L393.82 38.87L393.82 0.17L382.69 0.17L363.38 27.26Z" fill="#00C0F3" fill-opacity="1.000000" fill-rule="nonzero"/>
	<path id="Vector" d="M458.3 2.11C455.68 0.82 451.42 0.17 445.2 0.17L423.6 0.17L423.6 52.09L433.75 52.09L433.75 38.87L443.9 38.87C450.44 38.87 455.02 38.22 457.64 36.93C460.59 35.64 461.9 33.06 461.9 29.19L461.9 9.2C462.22 5.65 460.91 3.4 458.3 2.11ZM452.41 28.87C452.41 30.16 451.75 31.13 450.77 31.77C449.79 32.42 447.82 32.74 445.2 32.74L434.08 32.74L434.08 6.94L445.2 6.94C448.15 6.94 450.11 7.27 451.1 7.59C452.08 7.91 452.73 8.88 452.73 10.17L452.73 28.87L452.41 28.87Z" fill="#00C0F3" fill-opacity="1.000000" fill-rule="nonzero"/>
	<path id="Vector" d="M499.86 27.26L499.86 0.17L490.04 0.17L490.04 38.87L501.17 38.87L520.48 11.46L520.48 38.87L530.3 38.87L530.3 0.17L519.17 0.17L499.86 27.26Z" fill="#00C0F3" fill-opacity="1.000000" fill-rule="nonzero"/>
	<path id="Vector" d="M587.58 15.65L569.25 15.65L569.25 0.17L559.1 0.17L559.1 38.87L569.25 38.87L569.25 22.42L587.58 22.42L587.58 38.87L597.73 38.87L597.73 0.17L587.58 0.17L587.58 15.65Z" fill="#00C0F3" fill-opacity="1.000000" fill-rule="nonzero"/>
	<path id="Vector" d="M642.24 0.17C636.35 0.17 631.76 0.82 629.15 2.11C626.53 3.4 625.22 5.65 625.22 9.2L625.22 14.04L625.22 18.55L625.22 38.87L635.04 38.87L635.04 27.9L635.04 18.23L635.04 14.04L635.04 9.85C635.04 8.56 635.69 7.91 636.67 7.27C637.65 6.94 639.62 6.62 642.57 6.62L652.06 6.62L652.06 -0.15L642.24 -0.15L642.24 0.17Z" fill="#00C0F3" fill-opacity="1.000000" fill-rule="nonzero"/>
</svg>
