<svg width="800.000000" height="109.000000" viewBox="0 0 800 109" fill="none" xmlns="http://www.w3.org/2000/svg" xmlns:xlink="http://www.w3.org/1999/xlink">
	<desc>
			Created with Pixso.
	</desc>
	<defs/>
	<path id="Vector" d="M751.56 86.97C741.08 86.97 734.86 79.88 734.86 73.1L734.86 38.92C734.86 29.57 741.41 23.76 751.56 23.76L790.18 23.76L799.34 1.51L751.56 1.51C717.52 1.51 705.73 19.25 705.73 34.08L705.73 74.72C705.73 90.19 717.84 108.58 751.56 108.58L800 108.58L800 86.65L751.56 86.65L751.56 86.97Z" fill="#004773" fill-opacity="1.000000" fill-rule="nonzero"/>
	<path id="Vector" d="M534.56 1.51L477.93 1.51C444.22 1.51 432.11 19.25 432.11 34.08L432.11 86.65L418.69 86.65L418.69 108.58L547.65 108.58L547.65 86.65L534.23 86.65L534.23 1.51L534.56 1.51ZM505.43 86.97L461.24 86.97L461.24 38.92C461.24 29.57 467.79 23.76 477.93 23.76L505.43 23.76L505.43 86.97Z" fill="#004773" fill-opacity="1.000000" fill-rule="nonzero"/>
	<path id="Vector" d="M211.19 68.91L175.51 1.51L141.47 1.51L141.47 108.9L169.62 108.9L169.62 38.92L198.42 93.1L224.28 93.1L253.08 38.6L253.08 108.9L281.23 108.9L281.23 1.51L247.19 1.51L211.19 68.91Z" fill="#004773" fill-opacity="1.000000" fill-rule="nonzero"/>
	<path id="Vector" d="M335.89 73.1L335.89 65.04L389.89 65.04L389.89 45.37L335.89 45.37L335.89 23.76L391.2 23.76L400.36 1.51L307.09 1.51L307.09 74.72C307.09 90.19 318.87 108.58 352.58 108.58L401.02 108.58L401.02 86.65L352.58 86.65C341.78 86.97 335.89 79.55 335.89 73.1Z" fill="#004773" fill-opacity="1.000000" fill-rule="nonzero"/>
	<path id="Vector" d="M66.19 -0.1L55.39 -0.1C38.37 -0.1 23.64 9.9 20.04 23.76L-0.9 108.9L27.9 108.9L31.83 92.77L89.43 92.77L93.03 108.9L122.16 108.9L101.21 23.76C97.94 9.9 83.21 -0.1 66.19 -0.1ZM37.06 71.17L46.23 31.83C47.54 26.67 52.77 23.12 58.67 23.12L62.59 23.12C68.81 23.12 74.05 26.67 75.03 31.83L84.19 71.17L37.06 71.17Z" fill="#004773" fill-opacity="1.000000" fill-rule="nonzero"/>
	<path id="Vector" d="M597.73 68.27L597.73 1.51L569.58 1.51L569.58 108.9L597.73 108.9L652.06 34.41L652.06 108.9L680.2 108.9L680.2 1.51L647.8 1.51L597.73 68.27Z" fill="#004773" fill-opacity="1.000000" fill-rule="nonzero"/>
</svg>
