<svg width="14.000000" height="10.000000" viewBox="0 0 14 10" fill="none" xmlns="http://www.w3.org/2000/svg" xmlns:xlink="http://www.w3.org/1999/xlink">
	<desc>
			Created with Pixso.
	</desc>
	<defs/>
	<path id="Vector" d="M1.03003 0L12.96 0C13.54 0 14 0.450012 14 1C14 1.54999 13.54 2 12.97 2L1.03003 2C0.459961 2 0 1.54999 0 1C0 0.450012 0.459961 0 1.03003 0ZM1.03003 4L12.96 4C13.54 4 14 4.45001 14 5C14 5.54999 13.54 6 12.97 6L1.03003 6C0.459961 6 0 5.54999 0 5C0 4.45001 0.459961 4 1.03003 4ZM1.03003 8L12.96 8C13.54 8 14 8.45001 14 9C14 9.54999 13.54 10 12.97 10L1.03003 10C0.459961 10 0 9.54999 0 9C0 8.45001 0.459961 8 1.03003 8Z" fill="#00BAEC" fill-opacity="1.000000" fill-rule="nonzero"/>
</svg>
