<svg width="13.346924" height="13.549988" viewBox="0 0 13.3469 13.55" fill="none" xmlns="http://www.w3.org/2000/svg" xmlns:xlink="http://www.w3.org/1999/xlink">
	<desc>
			Created with Pixso.
	</desc>
	<defs/>
	<path id="Vector" d="M6.00116 12.0023C7.53888 12.0023 9.0766 11.4131 10.2449 10.2449C12.5815 7.90833 12.5815 4.09393 10.2449 1.75739C9.11658 0.629089 7.60876 0 6.00116 0C4.39355 0 2.89575 0.629089 1.75745 1.75739C0.61908 2.89575 0 4.39349 0 6.00116C0 7.60876 0.629089 9.11652 1.75745 10.2449C2.31433 10.8027 2.97583 11.2451 3.7041 11.5466C4.43231 11.8482 5.21295 12.0031 6.00116 12.0023ZM6.00116 1.69751C7.14948 1.69751 8.22791 2.14685 9.04669 2.95563C9.85254 3.76434 10.305 4.8595 10.305 6.00116C10.305 7.14282 9.85254 8.23792 9.04669 9.04663C8.23798 9.85248 7.14282 10.305 6.00116 10.305C4.8595 10.305 3.76434 9.85248 2.95569 9.04663C2.14685 8.23785 1.69751 7.14948 1.69751 6.00116C1.69751 4.85284 2.14685 3.77441 2.95569 2.95563C3.77448 2.14685 4.85284 1.69751 6.00116 1.69751Z" fill="#00243B" fill-opacity="1.000000" fill-rule="nonzero"/>
	<path id="Vector" d="M12.5016 13.55C12.669 13.5491 12.8323 13.4988 12.9713 13.4055C13.1102 13.3121 13.2184 13.1798 13.2823 13.0251C13.3464 12.8705 13.3632 12.7004 13.3309 12.5362C13.2986 12.372 13.2186 12.221 13.1008 12.1021L10.3448 9.34619C10.0153 9.01666 9.47614 9.01666 9.14661 9.34619C8.81708 9.67572 8.81708 10.2149 9.14661 10.5444L11.9025 13.3004C12.0623 13.4601 12.282 13.55 12.5016 13.55Z" fill="#00243B" fill-opacity="1.000000" fill-rule="nonzero"/>
</svg>
