<svg width="15.000000" height="14.000000" viewBox="0 0 15 14" fill="none" xmlns="http://www.w3.org/2000/svg" xmlns:xlink="http://www.w3.org/1999/xlink">
	<desc>
			Created with Pixso.
	</desc>
	<defs/>
	<path id="Vector" d="M14 14C13.45 14 13 13.55 13 13L13 5C13 4.45001 13.45 4 14 4C14.55 4 15 4.45001 15 5L15 13C15 13.55 14.55 14 14 14ZM9.66998 14C9.12 14 8.66998 13.55 8.66998 13L8.66998 3C8.66998 2.45001 9.12 2 9.66998 2C10.22 2 10.67 2.45001 10.67 3L10.67 13C10.67 13.55 10.22 14 9.66998 14ZM5.33002 14C4.78003 14 4.33002 13.55 4.33002 13L4.33002 7C4.33002 6.45001 4.78003 6 5.33002 6C5.88 6 6.33002 6.45001 6.33002 7L6.33002 13C6.33002 13.55 5.88 14 5.33002 14ZM1 14C0.450012 14 0 13.55 0 13L0 1C0 0.450012 0.450012 0 1 0C1.54999 0 2 0.450012 2 1L2 13C2 13.55 1.54999 14 1 14Z" fill="#00243B" fill-opacity="1.000000" fill-rule="nonzero"/>
</svg>
