<svg width="18.000458" height="14.716370" viewBox="0 0 18.0005 14.7164" fill="none" xmlns="http://www.w3.org/2000/svg" xmlns:xlink="http://www.w3.org/1999/xlink">
	<desc>
			Created with Pixso.
	</desc>
	<defs/>
	<path id="Vector" d="M14.5161 14.7164C14.6279 14.7164 14.7385 14.6943 14.8418 14.6516C14.945 14.6088 15.0388 14.5461 15.1178 14.4671C15.1969 14.3881 15.2595 14.2943 15.3023 14.191C15.3451 14.0878 15.3671 13.9772 15.3671 13.8654C15.3671 13.7537 15.3451 13.643 15.3023 13.5397C15.2595 13.4365 15.1969 13.3427 15.1178 13.2637C15.0388 13.1847 14.945 13.122 14.8418 13.0792C14.7385 13.0365 14.6279 13.0145 14.5161 13.0145L14.5161 14.7164ZM9.26031 13.0145L6.56732 13.0145L6.56732 14.7164L9.26031 14.7164L9.26031 13.0145ZM6.42712 12.8843L4.80536 1.5918L3.11346 1.83203L4.73529 13.1246L6.42712 12.8843ZM2.96332 0L0 0L0 1.7019L2.96332 1.7019L2.96332 0ZM11.733 14.7164L14.5161 14.7164L14.5161 13.0145L11.733 13.0145L11.733 14.7164ZM4.80536 1.5918C4.67517 0.680786 3.89435 0 2.96332 0L2.96332 1.7019C3.0434 1.7019 3.10345 1.75195 3.11346 1.83203L4.80536 1.5918ZM6.56732 13.0145C6.49719 13.0145 6.43713 12.9644 6.42712 12.8843L4.73529 13.1246C4.86542 14.0356 5.6463 14.7164 6.56732 14.7164L6.56732 13.0145Z" fill="#00243B" fill-opacity="1.000000" fill-rule="nonzero"/>
	<path id="Vector" d="M4.00439 2.85315L17.0189 2.85315L16.1379 9C16.0678 9.49054 15.6473 9.86096 15.1468 9.86096L5.7063 9.86096" stroke="#00243B" stroke-opacity="1.000000" stroke-width="1.701891"/>
</svg>
